<svg xmlns="http://www.w3.org/2000/svg" class="pf" width="480" height="190" viewBox="0 0 480 190" role="img" aria-labelledby="pf-title pf-desc">
<title id="pf-title">Moin, aichrisz&#39;s ProfileForge pet</title>
<desc id="pf-desc">Level 23 Trickster turtle, feeling happy. 133-day streak.</desc>
<style>.pf{--pf-bg:#0d1117;--pf-border:#30363d;--pf-title:#e6edf3;--pf-text:#e6edf3;--pf-muted:#8d96a0;--pf-accent:#ff8a5c;--pf-bar-empty:#21262d;--pf-hp:#3fb950;--pf-exp:#58a6ff;--pf-sky-top:#0a1630;--pf-sky-bottom:#23305a;--pf-ground:#3d3526;--pf-ground-dark:#2b251b;--pf-stars:1;--pf-city-sky-top:#070f24;--pf-city-sky-bottom:#1f2c55;--pf-city-text:#e6edf3;--pf-city-muted:#9fb0d0;--pf-bldg1:#161d33;--pf-bldg2:#1d2640;--pf-bldg3:#121829;--pf-bldg4:#1d1a33;--pf-bldg5:#122536;--pf-city-haze:#1b2647;--pf-city-hill:#16203d;--pf-city-water:#132048;--pf-city-water-deep:#050b1c;--pf-city-quay:#2b3452;--pf-window-on:#ffd166;--pf-window-alt:#9ad1ff;--pf-window-off:#26304d;--pf-road:#0e1322;--pf-celestial:#f4f1de}
.pf-name{font:700 20px 'Segoe UI',Ubuntu,'Helvetica Neue',sans-serif;fill:var(--pf-title)}
.pf-class{font:700 13px 'Segoe UI',Ubuntu,'Helvetica Neue',sans-serif}
.pf-accent{fill:var(--pf-accent)}
.pf-muted{fill:var(--pf-muted);font-weight:400}
.pf-label{font:700 11px ui-monospace,SFMono-Regular,Menlo,Consolas,monospace;fill:var(--pf-muted)}
.pf-value{font:400 11px ui-monospace,SFMono-Regular,Menlo,Consolas,monospace;fill:var(--pf-text)}
.pf-stat{font:700 16px ui-monospace,SFMono-Regular,Menlo,Consolas,monospace;fill:var(--pf-text)}
.pf-mood{font:400 12px 'Segoe UI',Ubuntu,'Helvetica Neue',sans-serif;fill:var(--pf-muted)}
.pf-icon-beat,.pf-icon-wobble,.pf-icon-shake{transform-box:fill-box;transform-origin:center}
.pf-icon-beat{animation:pf-icon-beat 1.2s ease-in-out infinite}
@keyframes pf-icon-beat{0%,45%,100%{transform:scale(1)}15%{transform:scale(1.3)}30%{transform:scale(1.1)}}
.pf-shine{animation:pf-shine 7s ease-in-out infinite}
@keyframes pf-shine{0%,70%{transform:translateX(0)}100%{transform:translateX(210px)}}
.pf-glint{animation:pf-glint 5s ease-in-out infinite}
@keyframes pf-glint{0%,60%{transform:translateX(0);opacity:0}64%{opacity:.6}96%{opacity:.6}100%{transform:translateX(var(--w));opacity:0}}
.pf-charge{animation:pf-charge 2.4s ease-in-out infinite}
@keyframes pf-charge{0%,100%{opacity:.12}50%{opacity:.45}}
.pf-fa{animation:pf-a 1s steps(1) infinite}
.pf-fb{opacity:0;animation:pf-b 1s steps(1) infinite}
@keyframes pf-a{0%{opacity:1}50%{opacity:0}100%{opacity:0}}
@keyframes pf-b{0%{opacity:0}50%{opacity:1}100%{opacity:1}}
.pf-twinkle{transform-box:fill-box;transform-origin:center;animation:pf-twinkle 1.8s ease-in-out infinite}
@keyframes pf-twinkle{0%,100%{opacity:.15;transform:scale(.5)}50%{opacity:1;transform:scale(1)}}
.pf-star{opacity:var(--pf-stars)}
.pf-day{opacity:calc(.85 - var(--pf-stars) * .85)}
.pf-cloud{animation:pf-cloud 80s linear infinite}
@keyframes pf-cloud{from{transform:translateX(var(--from))}to{transform:translateX(var(--to))}}
.pf-shoot{opacity:0;animation:pf-shoot 11s ease-in infinite}
@keyframes pf-shoot{0%,88%{opacity:0;transform:translate(0,0)}90%{opacity:1}97%,100%{opacity:0;transform:translate(-60px,28px)}}
.pf-fall{animation:pf-fall 10s linear infinite}
.pf-spin{transform-box:fill-box;transform-origin:center}
@keyframes pf-fall{0%{transform:translate(0,-12px) rotate(0)}100%{transform:translate(var(--dx),272px) rotate(var(--spin,0deg))}}
.pf-tint{opacity:calc(.75 - var(--pf-stars) * .4)}
.pf-bd-n{opacity:calc(var(--pf-stars) * .72)}
.pf-run{animation:pf-run .3s ease-in-out infinite}
@keyframes pf-run{0%,100%{transform:translateY(0)}50%{transform:translateY(-2px)}}
.pf-catch{opacity:0;transform-box:fill-box;transform-origin:0 100%;animation:pf-catch 6s steps(1) infinite}
.pf-dust{opacity:0;transform-box:fill-box;transform-origin:center;animation:pf-dust 6s ease-out infinite}
@media (prefers-reduced-motion:reduce){.pf *{animation:none!important}}
.pf-amb-ripple{transform-box:fill-box;transform-origin:center;animation:pf-amb-ripple 3s ease-out infinite}
@keyframes pf-amb-ripple{0%{transform:scale(.3);opacity:.9}100%{transform:scale(1.6);opacity:0}}
.pf-amb-fish{opacity:0;transform-box:fill-box;transform-origin:center;animation:pf-amb-fish 8s ease-in-out infinite}
@keyframes pf-amb-fish{0%,70%{opacity:0;transform:translate(-8px,4px) rotate(-40deg)}72%{opacity:1}80%{transform:translate(0,-14px) rotate(0)}88%{opacity:1;transform:translate(8px,2px) rotate(40deg)}90%,100%{opacity:0;transform:translate(8px,4px) rotate(40deg)}}
.pf-fetch-pet{animation:pf-fetch-pet 6s linear infinite}
@keyframes pf-fetch-pet{0%{transform:translate(0px,0px)}1.67%{transform:translate(0px,0px)}3.33%{transform:translate(0px,0px)}5%{transform:translate(0px,0px)}6.67%{transform:translate(0px,0px)}8.33%{transform:translate(0px,0px)}10%{transform:translate(0px,0px)}11.67%{transform:translate(0px,0px)}13.33%{transform:translate(0px,0px)}15%{transform:translate(0px,0px)}16.67%{transform:translate(-3.1px,-2.6px)}18.33%{transform:translate(-6.3px,-2.6px)}20%{transform:translate(-9.4px,0px)}21.67%{transform:translate(-12.6px,-2.6px)}23.33%{transform:translate(-15.7px,-2.6px)}25%{transform:translate(-18.9px,0px)}26.67%{transform:translate(-22px,-2.6px)}28.33%{transform:translate(-25.1px,-2.6px)}30%{transform:translate(-28.3px,0px)}31.67%{transform:translate(-31.4px,-2.6px)}33.33%{transform:translate(-34.6px,-2.6px)}35%{transform:translate(-37.7px,0px)}36.67%{transform:translate(-40.9px,-2.6px)}38.33%{transform:translate(-44px,-2.6px)}40%{transform:translate(-46.7px,-13.9px)}41.67%{transform:translate(-49.3px,-13.9px)}43.33%{transform:translate(-52px,0px)}45%{transform:translate(-52px,0px)}46.67%{transform:translate(-52px,-3.5px)}48.33%{transform:translate(-52px,-3.5px)}50%{transform:translate(-52px,0px)}51.67%{transform:translate(-52px,-5px)}53.33%{transform:translate(-52px,0px)}55%{transform:translate(-47px,-2.6px)}56.67%{transform:translate(-42px,-2.6px)}58.33%{transform:translate(-37px,0px)}60%{transform:translate(-32px,-2.6px)}61.67%{transform:translate(-27px,-2.6px)}63.33%{transform:translate(-22px,0px)}65%{transform:translate(-17px,-2.6px)}66.67%{transform:translate(-12px,-2.6px)}68.33%{transform:translate(-7px,0px)}70%{transform:translate(-2px,-2.6px)}71.67%{transform:translate(3px,-2.6px)}73.33%{transform:translate(8px,0px)}75%{transform:translate(8px,0px)}76.67%{transform:translate(8px,0px)}78.33%{transform:translate(8px,-6.9px)}80%{transform:translate(8px,-16.6px)}81.67%{transform:translate(8px,-16.6px)}83.33%{transform:translate(8px,-6.9px)}85%{transform:translate(8px,0px)}86.67%{transform:translate(8px,0px)}88.33%{transform:translate(7px,0px)}90%{transform:translate(6px,0px)}91.67%{transform:translate(5px,0px)}93.33%{transform:translate(4px,0px)}95%{transform:translate(3px,0px)}96.67%{transform:translate(2px,0px)}98.33%{transform:translate(1px,0px)}100%{transform:translate(0px,0px)}}
.pf-fetch-ball{animation:pf-fetch-ball 6s linear infinite}
@keyframes pf-fetch-ball{0%{transform:translate(84px,-62px)}1.67%{transform:translate(84px,-62px)}3.33%{transform:translate(84px,-62px)}5%{transform:translate(84px,-62px)}6.67%{transform:translate(79.1px,-69.5px)}8.33%{transform:translate(69.4px,-81.6px)}10%{transform:translate(59.7px,-90px)}11.67%{transform:translate(49.9px,-94.8px)}13.33%{transform:translate(40.2px,-95.9px)}15%{transform:translate(30.4px,-93.2px)}16.67%{transform:translate(20.7px,-86.9px)}18.33%{transform:translate(11px,-76.9px)}20%{transform:translate(1.2px,-63.2px)}21.67%{transform:translate(-8.5px,-45.8px)}23.33%{transform:translate(-18.3px,-24.8px)}25%{transform:translate(-28px,0px)}26.67%{transform:translate(-31.5px,-12px)}28.33%{transform:translate(-35px,-16px)}30%{transform:translate(-38.5px,-12px)}31.67%{transform:translate(-42px,0px)}33.33%{transform:translate(-44.4px,-4.8px)}35%{transform:translate(-46.8px,-3.2px)}36.67%{transform:translate(-48.6px,0px)}38.33%{transform:translate(-49.7px,0px)}40%{transform:translate(-50.9px,0px)}41.67%{transform:translate(-77.3px,-35.9px)}43.33%{transform:translate(-80px,-22px)}45%{transform:translate(-80px,-22px)}46.67%{transform:translate(-80px,-25.5px)}48.33%{transform:translate(-80px,-25.5px)}50%{transform:translate(-80px,-22px)}51.67%{transform:translate(-80px,-27px)}53.33%{transform:translate(-24px,-22px)}55%{transform:translate(-19px,-24.6px)}56.67%{transform:translate(-14px,-24.6px)}58.33%{transform:translate(-9px,-22px)}60%{transform:translate(-4px,-24.6px)}61.67%{transform:translate(1px,-24.6px)}63.33%{transform:translate(6px,-22px)}65%{transform:translate(11px,-24.6px)}66.67%{transform:translate(16px,-24.6px)}68.33%{transform:translate(21px,-22px)}70%{transform:translate(26px,-24.6px)}71.67%{transform:translate(31px,-24.6px)}73.33%{transform:translate(36px,-22px)}75%{transform:translate(36px,-22px)}76.67%{transform:translate(36px,-22px)}78.33%{transform:translate(36px,-28.9px)}80%{transform:translate(12.7px,-54.7px)}81.67%{transform:translate(22.3px,-78.9px)}83.33%{transform:translate(31.8px,-95.9px)}85%{transform:translate(41.2px,-105.7px)}86.67%{transform:translate(50.8px,-108.5px)}88.33%{transform:translate(60.2px,-104.1px)}90%{transform:translate(69.8px,-92.6px)}91.67%{transform:translate(79.3px,-74px)}93.33%{transform:translate(84px,-62px)}95%{transform:translate(84px,-62px)}96.67%{transform:translate(84px,-62px)}98.33%{transform:translate(84px,-62px)}100%{transform:translate(84px,-62px)}}
.pf-fetch-shadow{transform-box:fill-box;transform-origin:center;animation:pf-fetch-shadow 6s linear infinite}
@keyframes pf-fetch-shadow{0%{transform:translateX(84px) scale(0.4);opacity:0}1.67%{transform:translateX(84px) scale(0.4);opacity:0}3.33%{transform:translateX(84px) scale(0.4);opacity:0}5%{transform:translateX(84px) scale(0.4);opacity:0}6.67%{transform:translateX(79.1px) scale(0.4);opacity:0.1}8.33%{transform:translateX(69.4px) scale(0.4);opacity:0.1}10%{transform:translateX(59.7px) scale(0.4);opacity:0.1}11.67%{transform:translateX(49.9px) scale(0.4);opacity:0.1}13.33%{transform:translateX(40.2px) scale(0.4);opacity:0.1}15%{transform:translateX(30.4px) scale(0.4);opacity:0.1}16.67%{transform:translateX(20.7px) scale(0.4);opacity:0.1}18.33%{transform:translateX(11px) scale(0.4);opacity:0.1}20%{transform:translateX(1.2px) scale(0.4);opacity:0.1}21.67%{transform:translateX(-8.5px) scale(0.4);opacity:0.1}23.33%{transform:translateX(-18.3px) scale(0.7);opacity:0.2}25%{transform:translateX(-28px) scale(1);opacity:0.4}26.67%{transform:translateX(-31.5px) scale(0.8);opacity:0.3}28.33%{transform:translateX(-35px) scale(0.8);opacity:0.3}30%{transform:translateX(-38.5px) scale(0.9);opacity:0.3}31.67%{transform:translateX(-42px) scale(1);opacity:0.4}33.33%{transform:translateX(-44.4px) scale(0.9);opacity:0.3}35%{transform:translateX(-46.8px) scale(1);opacity:0.3}36.67%{transform:translateX(-48.6px) scale(1);opacity:0.4}38.33%{transform:translateX(-49.7px) scale(1);opacity:0.4}40%{transform:translateX(-50.9px) scale(1);opacity:0.4}41.67%{transform:translateX(-77.3px) scale(0.6);opacity:0.2}43.33%{transform:translateX(-80px) scale(0.7);opacity:0.3}45%{transform:translateX(-80px) scale(0.7);opacity:0.3}46.67%{transform:translateX(-80px) scale(0.7);opacity:0.2}48.33%{transform:translateX(-80px) scale(0.7);opacity:0.2}50%{transform:translateX(-80px) scale(0.7);opacity:0.3}51.67%{transform:translateX(-80px) scale(0.7);opacity:0.2}53.33%{transform:translateX(-24px) scale(0.7);opacity:0.3}55%{transform:translateX(-19px) scale(0.7);opacity:0.2}56.67%{transform:translateX(-14px) scale(0.7);opacity:0.2}58.33%{transform:translateX(-9px) scale(0.7);opacity:0.3}60%{transform:translateX(-4px) scale(0.7);opacity:0.2}61.67%{transform:translateX(1px) scale(0.7);opacity:0.2}63.33%{transform:translateX(6px) scale(0.7);opacity:0.3}65%{transform:translateX(11px) scale(0.7);opacity:0.2}66.67%{transform:translateX(16px) scale(0.7);opacity:0.2}68.33%{transform:translateX(21px) scale(0.7);opacity:0.3}70%{transform:translateX(26px) scale(0.7);opacity:0.2}71.67%{transform:translateX(31px) scale(0.7);opacity:0.2}73.33%{transform:translateX(36px) scale(0.7);opacity:0.3}75%{transform:translateX(36px) scale(0.7);opacity:0.3}76.67%{transform:translateX(36px) scale(0.7);opacity:0.3}78.33%{transform:translateX(36px) scale(0.6);opacity:0.2}80%{transform:translateX(12.7px) scale(0.4);opacity:0.1}81.67%{transform:translateX(22.3px) scale(0.4);opacity:0.1}83.33%{transform:translateX(31.8px) scale(0.4);opacity:0.1}85%{transform:translateX(41.2px) scale(0.4);opacity:0.1}86.67%{transform:translateX(50.8px) scale(0.4);opacity:0.1}88.33%{transform:translateX(60.2px) scale(0.4);opacity:0.1}90%{transform:translateX(69.8px) scale(0.4);opacity:0.1}91.67%{transform:translateX(79.3px) scale(0.4);opacity:0.1}93.33%{transform:translateX(84px) scale(0.4);opacity:0}95%{transform:translateX(84px) scale(0.4);opacity:0}96.67%{transform:translateX(84px) scale(0.4);opacity:0}98.33%{transform:translateX(84px) scale(0.4);opacity:0}100%{transform:translateX(84px) scale(0.4);opacity:0}}
.pf-fetch-face{transform-box:fill-box;transform-origin:center;animation:pf-fetch-face 6s steps(1) infinite}
@keyframes pf-fetch-face{0%{transform:scaleX(1)}1.67%{transform:scaleX(1)}3.33%{transform:scaleX(1)}5%{transform:scaleX(1)}6.67%{transform:scaleX(1)}8.33%{transform:scaleX(1)}10%{transform:scaleX(1)}11.67%{transform:scaleX(1)}13.33%{transform:scaleX(1)}15%{transform:scaleX(-1)}16.67%{transform:scaleX(-1)}18.33%{transform:scaleX(-1)}20%{transform:scaleX(-1)}21.67%{transform:scaleX(-1)}23.33%{transform:scaleX(-1)}25%{transform:scaleX(-1)}26.67%{transform:scaleX(-1)}28.33%{transform:scaleX(-1)}30%{transform:scaleX(-1)}31.67%{transform:scaleX(-1)}33.33%{transform:scaleX(-1)}35%{transform:scaleX(-1)}36.67%{transform:scaleX(-1)}38.33%{transform:scaleX(-1)}40%{transform:scaleX(-1)}41.67%{transform:scaleX(-1)}43.33%{transform:scaleX(-1)}45%{transform:scaleX(-1)}46.67%{transform:scaleX(-1)}48.33%{transform:scaleX(-1)}50%{transform:scaleX(-1)}51.67%{transform:scaleX(-1)}53.33%{transform:scaleX(1)}55%{transform:scaleX(1)}56.67%{transform:scaleX(1)}58.33%{transform:scaleX(1)}60%{transform:scaleX(1)}61.67%{transform:scaleX(1)}63.33%{transform:scaleX(1)}65%{transform:scaleX(1)}66.67%{transform:scaleX(1)}68.33%{transform:scaleX(1)}70%{transform:scaleX(1)}71.67%{transform:scaleX(1)}73.33%{transform:scaleX(1)}75%{transform:scaleX(1)}76.67%{transform:scaleX(1)}78.33%{transform:scaleX(1)}80%{transform:scaleX(1)}81.67%{transform:scaleX(1)}83.33%{transform:scaleX(1)}85%{transform:scaleX(1)}86.67%{transform:scaleX(-1)}88.33%{transform:scaleX(-1)}90%{transform:scaleX(-1)}91.67%{transform:scaleX(-1)}93.33%{transform:scaleX(-1)}95%{transform:scaleX(-1)}96.67%{transform:scaleX(-1)}98.33%{transform:scaleX(-1)}100%{transform:scaleX(1)}}
.pf-fetch-squash{transform-box:fill-box;transform-origin:50% 100%;animation:pf-fetch-squash 6s ease-in-out infinite}
@keyframes pf-fetch-squash{0%,13.33%,41.67%,45.83%,75%,85.83%,91.67%,100%{transform:none}5%{transform:scale(1.08,.88)}43.67%{transform:scale(1.14,.82)}77%{transform:scale(1.1,.86)}85%{transform:scale(1.06,.9)}96.67%{transform:scale(1.06,.9)}}
.pf-ball-a{animation:pf-ball-a .3s steps(1) infinite}
.pf-ball-b{opacity:0;animation:pf-ball-a .3s steps(1) infinite;animation-delay:-.15s}
@keyframes pf-ball-a{0%{opacity:1}50%{opacity:0}}
.pf-hand{animation:pf-hand 6s ease-in-out infinite}
@keyframes pf-hand{0%{transform:translateX(30px)}2.5%{transform:translateX(0)}7.5%{transform:translateX(-6px) rotate(-8deg)}13.33%,85%{transform:translateX(30px)}90.83%{transform:translateX(0)}95.83%,100%{transform:translateX(30px)}}
@keyframes pf-catch{0%{opacity:0}43.33%{opacity:1}55%{opacity:0}100%{opacity:0}}
@keyframes pf-dust{0%{opacity:0;transform:scale(.4)}2%{opacity:.8;transform:scale(1)}8%,100%{opacity:0;transform:scale(1.6) translateY(-4px)}}</style>

<rect width="480" height="190" rx="10" style="fill:var(--pf-bg)"/>
<rect x=".5" y=".5" width="479" height="189" rx="10" fill="none" style="stroke:var(--pf-border)"/>

<defs>
  <clipPath id="pf-clip"><rect x="12" y="12" width="200" height="166" rx="8"/></clipPath>
  <linearGradient id="pf-sky" x1="0" y1="0" x2="0" y2="1">
    <stop offset="0" style="stop-color:var(--pf-sky-top)"/>
    <stop offset="1" style="stop-color:var(--pf-sky-bottom)"/>
  </linearGradient>
  <linearGradient id="pf-fog" x1="0" y1="0" x2="0" y2="1">
    <stop offset="0" stop-color="#d7deea" stop-opacity="0"/><stop offset=".5" stop-color="#d7deea"/><stop offset="1" stop-color="#d7deea" stop-opacity="0"/>
  </linearGradient>
</defs>
<g clip-path="url(#pf-clip)">
  <rect x="12" y="12" width="200" height="166" fill="url(#pf-sky)"/>
  <g class="pf-star"><rect class="pf-twinkle" style="animation-delay:-0s" x="28" y="26" width="3" height="3" fill="#fff"/><rect class="pf-twinkle" style="animation-delay:-0.7s" x="62" y="44" width="3" height="3" fill="#fff"/><rect class="pf-twinkle" style="animation-delay:-1.3s" x="96" y="22" width="3" height="3" fill="#fff"/><rect class="pf-twinkle" style="animation-delay:-0.4s" x="138" y="38" width="3" height="3" fill="#fff"/><rect class="pf-twinkle" style="animation-delay:-1.1s" x="178" y="24" width="3" height="3" fill="#fff"/><rect class="pf-twinkle" style="animation-delay:-0.2s" x="196" y="56" width="3" height="3" fill="#fff"/><rect class="pf-twinkle" style="animation-delay:-1.5s" x="44" y="70" width="3" height="3" fill="#fff"/></g><g class="pf-day"><g class="pf-cloud" style="--from:-32px;--to:210px;animation-duration:70s;animation-delay:-20s"><path fill="#ffffff" d="M12 42h28v8h-28zm6 -6h14v6h-14zM16 50h22v4h-22z"/></g><g class="pf-cloud" style="--from:-32px;--to:210px;animation-duration:95s;animation-delay:-70s"><path fill="#ffffff" d="M12 70h21v6h-21zm4.5 -4.5h10.5v4.5h-10.5zM15 76h16.5v3h-16.5z"/></g></g><g class="pf-star"><g class="pf-shoot"><rect x="172" y="26" width="14" height="1.5" fill="#ffffff" transform="rotate(-25 179 27)"/></g></g>
  <g id="pf-bd"><path fill="#c6dfb4" d="M12 136h4V135h6V134h10V133h22V134h8V135h8V136h6V137h6V138h10V139h22V138h8V137h8V136h6V135h6V134h10V133h22V134h8V135h6V136h8V137h6V138h8V139h2V146h-200z"/><path fill="#a3cd93" d="M12 118h2V116h12V120h10V122h2V120h14V118h8V120h2V118h12V116h14V114h8V116h2V118h2V120h8V122h2V120h2V118h8V120h2V118h14V116h8V118h2V116h14V114h8V116h2V118h2V120h12V118h8V120h2V118h14V116h4V146h-200z"/><path fill="#7eb86c" d="M46 134h2V132h8V134h4V132h8V134h2V146h-24zM126 134h2V132h8V134h2V146h-12zM140 134h2V132h8V134h2V146h-12z"/></g><mask id="pf-bd-m" style="mask-type:alpha" maskUnits="userSpaceOnUse" x="12" y="12" width="200" height="134"><use href="#pf-bd"/></mask><rect mask="url(#pf-bd-m)" x="12" y="12" width="200" height="134" fill="#e0892f" opacity="0.32"/><rect class="pf-bd-n" mask="url(#pf-bd-m)" x="12" y="12" width="200" height="134" fill="#0e1838"/>
  <rect x="12" y="144" width="200" height="34" style="fill:var(--pf-ground)"/>
  <path style="fill:var(--pf-ground)" d="M12 141h2V139h2V140h2V142h2V141h2V138h2V140h2V141h2V142h2V140h2V139h2V141h2V142h2V141h2V140h2V137h2V141h2V142h2V140h2V141h2V139h2V142h2V141h2V140h2V141h2V139h2V140h2V142h2V141h2V138h2V140h2V141h2V142h2V140h2V139h2V141h2V142h2V141h2V140h2V137h2V141h2V142h2V140h2V141h2V139h2V142h2V141h2V140h2V141h2V139h2V140h2V142h2V141h2V138h2V140h2V141h2V142h2V140h2V139h2V141h2V142h2V141h2V140h2V137h2V141h2V142h2V140h2V141h2V139h2V142h2V141h2V140h2V141h2V139h2V140h2V142h2V141h2V138h2V140h2V141h2V142h2V140h2V139h2V141h2V142h2V141h2V140h2V137h2V141h2V142h2V140h2V141h2V139h2V142h2V141h2V140h2V141h2V139h2V140h2V142h2V145h-200z"/><g class="pf-tint"><rect x="12" y="144" width="200" height="34" fill="#79b865"/><path fill="#79b865" d="M12 141h2V139h2V140h2V142h2V141h2V138h2V140h2V141h2V142h2V140h2V139h2V141h2V142h2V141h2V140h2V137h2V141h2V142h2V140h2V141h2V139h2V142h2V141h2V140h2V141h2V139h2V140h2V142h2V141h2V138h2V140h2V141h2V142h2V140h2V139h2V141h2V142h2V141h2V140h2V137h2V141h2V142h2V140h2V141h2V139h2V142h2V141h2V140h2V141h2V139h2V140h2V142h2V141h2V138h2V140h2V141h2V142h2V140h2V139h2V141h2V142h2V141h2V140h2V137h2V141h2V142h2V140h2V141h2V139h2V142h2V141h2V140h2V141h2V139h2V140h2V142h2V141h2V138h2V140h2V141h2V142h2V140h2V139h2V141h2V142h2V141h2V140h2V137h2V141h2V142h2V140h2V141h2V139h2V142h2V141h2V140h2V141h2V139h2V140h2V142h2V144h-200z"/></g>
  <path fill="#5fa8d3" d="M142 150h56v14h-56zm6 -2h44v2h-44zm0 16h44v2h-44z"/><path fill="#9fd0ec" d="M154 153h12v2h-12z"/><path fill="#3f8f4f" d="M176 154h10v5h-10z"/><path fill="#ff8fa3" d="M179 153h3v2h-3z"/><path fill="#2c6b3a" d="M200 128h2v22h-2zm4 0h2v22h-2z"/><path fill="#8a5a33" d="M200 124h2v5h-2zm4 0h2v5h-2z"/>
  <ellipse class="pf-amb-ripple" style="animation-delay:-0s" cx="162" cy="157" rx="8" ry="2.5" fill="none" stroke="#d0ebff" stroke-width="1"/><ellipse class="pf-amb-ripple" style="animation-delay:-1.5s" cx="162" cy="157" rx="8" ry="2.5" fill="none" stroke="#d0ebff" stroke-width="1"/><g class="pf-amb-fish"><path fill="#ff922b" d="M160 155h4v2h-4zM156 157h12v2h-12zM158 159h4v2h-4zM164 159h4v2h-4z"/></g>
  
  
  
  <g>
  <g class="pf-fetch-pet"><rect x="80" y="146" width="64" height="6" rx="3" opacity=".3" style="fill:var(--pf-ground-dark)"/></g><g class="pf-fetch-shadow"><rect x="106" y="146" width="12" height="4" rx="2" style="fill:var(--pf-ground-dark)"/></g><g class="pf-dust" style="animation-delay:-4.9s"><path fill="#b9ad93" d="M145.71428571428572 138h4v2h-4zM143.71428571428572 140h2v2h-2zM149.71428571428572 140h2v2h-2zM141.71428571428572 142h2v2h-2zM151.71428571428572 142h2v2h-2zM143.71428571428572 144h2v2h-2zM149.71428571428572 144h2v2h-2zM145.71428571428572 146h4v2h-4z"/><path fill="#e9e3d5" d="M145.71428571428572 140h4v2h-4zM143.71428571428572 142h8v2h-8zM145.71428571428572 144h4v2h-4z"/></g><g class="pf-dust" style="animation-delay:-4.5s"><path fill="#b9ad93" d="M133.14285714285714 138h4v2h-4zM131.14285714285714 140h2v2h-2zM137.14285714285714 140h2v2h-2zM129.14285714285714 142h2v2h-2zM139.14285714285714 142h2v2h-2zM131.14285714285714 144h2v2h-2zM137.14285714285714 144h2v2h-2zM133.14285714285714 146h4v2h-4z"/><path fill="#e9e3d5" d="M133.14285714285714 140h4v2h-4zM131.14285714285714 142h8v2h-8zM133.14285714285714 144h4v2h-4z"/></g><g class="pf-dust" style="animation-delay:-4.1s"><path fill="#b9ad93" d="M120.57142857142857 138h4v2h-4zM118.57142857142857 140h2v2h-2zM124.57142857142857 140h2v2h-2zM116.57142857142857 142h2v2h-2zM126.57142857142857 142h2v2h-2zM118.57142857142857 144h2v2h-2zM124.57142857142857 144h2v2h-2zM120.57142857142857 146h4v2h-4z"/><path fill="#e9e3d5" d="M120.57142857142857 140h4v2h-4zM118.57142857142857 142h8v2h-8zM120.57142857142857 144h4v2h-4z"/></g><g class="pf-dust" style="animation-delay:-2.6s"><path fill="#b9ad93" d="M29.999999999999986 138h4v2h-4zM27.999999999999986 140h2v2h-2zM33.999999999999986 140h2v2h-2zM25.999999999999986 142h2v2h-2zM35.999999999999986 142h2v2h-2zM27.999999999999986 144h2v2h-2zM33.999999999999986 144h2v2h-2zM29.999999999999986 146h4v2h-4z"/><path fill="#e9e3d5" d="M29.999999999999986 140h4v2h-4zM27.999999999999986 142h8v2h-8zM29.999999999999986 144h4v2h-4z"/></g><g class="pf-dust" style="animation-delay:-2.2s"><path fill="#b9ad93" d="M49.999999999999986 138h4v2h-4zM47.999999999999986 140h2v2h-2zM53.999999999999986 140h2v2h-2zM45.999999999999986 142h2v2h-2zM55.999999999999986 142h2v2h-2zM47.999999999999986 144h2v2h-2zM53.999999999999986 144h2v2h-2zM49.999999999999986 146h4v2h-4z"/><path fill="#e9e3d5" d="M49.999999999999986 140h4v2h-4zM47.999999999999986 142h8v2h-8zM49.999999999999986 144h4v2h-4z"/></g><g class="pf-dust" style="animation-delay:-1.7999999999999998s"><path fill="#b9ad93" d="M70 138h4v2h-4zM68 140h2v2h-2zM74 140h2v2h-2zM66 142h2v2h-2zM76 142h2v2h-2zM68 144h2v2h-2zM74 144h2v2h-2zM70 146h4v2h-4z"/><path fill="#e9e3d5" d="M70 140h4v2h-4zM68 142h8v2h-8zM70 144h4v2h-4z"/></g><g class="pf-fetch-pet"><g transform="translate(72 100)"><g class="pf-fetch-squash"><g class="pf-run"><g class="pf-fetch-face"><g class="pf-fa" style="animation-duration:0.6s"><path fill="#13304f" d="M16 36h4v4h-4zM28 36h4v4h-4zM40 36h4v4h-4zM52 36h4v4h-4zM16 40h4v4h-4zM28 40h4v4h-4zM40 40h4v4h-4zM52 40h4v4h-4zM20 44h8v4h-8zM44 44h8v4h-8z"/><path fill="#9ad3a8" d="M20 36h8v4h-8zM44 36h8v4h-8z"/><path fill="#6fb482" d="M20 40h8v4h-8zM44 40h8v4h-8z"/></g><g class="pf-fb" style="animation-duration:0.6s"><path fill="#13304f" d="M20 36h4v4h-4zM32 36h8v4h-8zM48 36h4v4h-4zM20 40h4v4h-4zM32 40h8v4h-8zM48 40h4v4h-4zM24 44h8v4h-8zM40 44h8v4h-8z"/><path fill="#9ad3a8" d="M24 36h8v4h-8zM40 36h8v4h-8z"/><path fill="#6fb482" d="M24 40h8v4h-8zM40 40h8v4h-8z"/></g><path fill="#13304f" d="M24 4h20v4h-20zM16 8h8v4h-8zM44 8h8v4h-8zM56 8h20v4h-20zM12 12h4v4h-4zM52 12h4v4h-4zM76 12h4v4h-4zM8 16h4v4h-4zM52 16h4v4h-4zM76 16h4v4h-4zM8 20h4v4h-4zM52 20h4v4h-4zM76 20h4v4h-4zM8 24h4v4h-4zM52 24h4v4h-4zM76 24h4v4h-4zM0 28h4v4h-4zM8 28h4v4h-4zM56 28h20v4h-20zM0 32h8v4h-8zM12 32h44v4h-44z"/><path fill="#86b8ee" d="M24 8h8v4h-8zM16 12h4v4h-4zM56 12h8v4h-8zM12 16h4v4h-4z"/><path fill="#3178c6" d="M32 8h12v4h-12zM20 12h8v4h-8zM44 12h8v4h-8zM16 16h8v4h-8zM28 16h16v4h-16zM48 16h4v4h-4zM12 20h8v4h-8zM24 20h24v4h-24zM12 24h12v4h-12zM48 24h4v4h-4z"/><path fill="#1f5596" d="M28 12h16v4h-16zM24 16h4v4h-4zM44 16h4v4h-4zM20 20h4v4h-4zM48 20h4v4h-4zM24 24h24v4h-24z"/><path fill="#9ad3a8" d="M64 12h12v4h-12zM56 16h20v4h-20zM56 20h20v4h-20zM4 28h4v4h-4z"/><path fill="#c9ecd2" d="M56 24h20v4h-20z"/><path fill="#a8cbf2" d="M12 28h44v4h-44z"/><path fill="#111111" d="M60 20h4v4h-4zM72 20h4v4h-4zM64 24h8v4h-8z"/><path fill="#ff8fa3" d="M56 20h4v4h-4z"/><path fill="#111111" d="M64 12h4v4h-4zM60 16h4v4h-4zM68 16h4v4h-4z"/></g></g></g><g class="pf-catch"><rect x="74" y="-22" width="14" height="14" rx="4" fill="#ffffff" stroke="#1f2328" stroke-width="1"/><rect x="77" y="-9" width="3" height="3" fill="#ffffff" stroke="#1f2328" stroke-width="1"/><path fill="#1f2328" d="M80 -20h2v2h-2zM80 -18h2v2h-2zM80 -16h2v2h-2zM80 -12h2v2h-2z"/></g></g></g><g class="pf-fetch-ball"><g class="pf-ball-a"><path fill="#5f7a12" d="M108 128h8v2h-8zM106 130h2v2h-2zM116 130h2v2h-2zM104 132h2v2h-2zM118 132h2v2h-2zM104 134h2v2h-2zM118 134h2v2h-2zM104 136h2v2h-2zM118 136h2v2h-2zM104 138h2v2h-2zM118 138h2v2h-2zM106 140h2v2h-2zM116 140h2v2h-2zM108 142h8v2h-8z"/><path fill="#c6e33a" d="M108 130h8v2h-8zM106 132h8v2h-8zM116 132h2v2h-2zM106 134h2v2h-2zM110 134h8v2h-8zM106 136h4v2h-4zM112 136h6v2h-6zM106 138h6v2h-6zM114 138h4v2h-4zM108 140h8v2h-8z"/><path fill="#ffffff" d="M114 132h2v2h-2zM108 134h2v2h-2zM110 136h2v2h-2zM112 138h2v2h-2z"/></g><g class="pf-ball-b"><path fill="#5f7a12" d="M108 128h8v2h-8zM106 130h2v2h-2zM116 130h2v2h-2zM104 132h2v2h-2zM118 132h2v2h-2zM104 134h2v2h-2zM118 134h2v2h-2zM104 136h2v2h-2zM118 136h2v2h-2zM104 138h2v2h-2zM118 138h2v2h-2zM106 140h2v2h-2zM116 140h2v2h-2zM108 142h8v2h-8z"/><path fill="#c6e33a" d="M108 130h8v2h-8zM106 132h2v2h-2zM110 132h8v2h-8zM106 134h4v2h-4zM112 134h6v2h-6zM106 136h8v2h-8zM116 136h2v2h-2zM106 138h10v2h-10zM108 140h8v2h-8z"/><path fill="#ffffff" d="M108 132h2v2h-2zM110 134h2v2h-2zM114 136h2v2h-2zM116 138h2v2h-2z"/></g></g><g class="pf-hand"><path fill="#8a5a3c" d="M204 72h8v2h-8zM202 74h2v2h-2zM212 74h4v2h-4zM200 76h2v2h-2zM216 76h4v2h-4zM198 78h2v2h-2zM220 78h2v2h-2zM198 80h2v2h-2zM220 80h2v2h-2zM200 82h2v2h-2zM214 82h2v2h-2zM220 82h2v2h-2zM202 84h2v2h-2zM210 84h4v2h-4zM216 84h4v2h-4zM204 86h6v2h-6z"/><path fill="#f2c29b" d="M204 74h8v2h-8zM202 76h14v2h-14zM200 78h14v2h-14zM200 80h14v2h-14zM202 82h12v2h-12zM204 84h6v2h-6z"/><path fill="#4c6ef5" d="M214 78h6v2h-6zM214 80h6v2h-6zM216 82h4v2h-4z"/></g>
  
  </g>
  
  <g><path class="pf-fall pf-spin" style="--dx:-12px;--spin:540deg;animation-duration:14.9s;animation-delay:-5.4s" fill="#d62828" d="M115 12h2v1h2v2h-2v-1h-1v-1h-1z"/><path class="pf-fall pf-spin" style="--dx:22px;--spin:-540deg;animation-duration:12.6s;animation-delay:-10.7s" fill="#e76f51" d="M78 12h2v1h1v1h-2v-1h-1z"/><path class="pf-fall pf-spin" style="--dx:18px;--spin:-540deg;animation-duration:13.1s;animation-delay:-11.9s" fill="#f4a261" d="M136 12h2v1h2v2h-2v-1h-1v-1h-1z"/><path class="pf-fall pf-spin" style="--dx:-21px;--spin:540deg;animation-duration:13.7s;animation-delay:-4.8s" fill="#d62828" d="M170 12h2v1h2v2h-2v-1h-1v-1h-1z"/><path class="pf-fall pf-spin" style="--dx:-34px;--spin:540deg;animation-duration:9.9s;animation-delay:-7.5s" fill="#f4a261" d="M151 12h2v1h1v1h-2v-1h-1z"/><path class="pf-fall pf-spin" style="--dx:-20px;--spin:540deg;animation-duration:12.5s;animation-delay:-7.5s" fill="#e76f51" d="M125 12h2v1h1v1h-2v-1h-1z"/><path class="pf-fall pf-spin" style="--dx:10px;--spin:540deg;animation-duration:14.0s;animation-delay:-9.7s" fill="#e76f51" d="M37 12h2v1h2v2h-2v-1h-1v-1h-1z"/><path class="pf-fall pf-spin" style="--dx:24px;--spin:-540deg;animation-duration:11.4s;animation-delay:-1.4s" fill="#e76f51" d="M97 12h2v1h2v2h-2v-1h-1v-1h-1z"/><path class="pf-fall pf-spin" style="--dx:15px;--spin:-540deg;animation-duration:13.4s;animation-delay:-13.0s" fill="#f4a261" d="M79 12h2v1h1v1h-2v-1h-1z"/><path class="pf-fall pf-spin" style="--dx:-12px;--spin:540deg;animation-duration:8.8s;animation-delay:-2.0s" fill="#f4a261" d="M181 12h2v1h1v1h-2v-1h-1z"/></g>
  
</g>

<g>
  <text x="230" y="40" class="pf-name">Moin</text>
  <clipPath id="pf-name-clip"><text x="230" y="40" class="pf-name">Moin</text></clipPath>
  <g clip-path="url(#pf-name-clip)"><g class="pf-shine"><rect transform="skewX(-20)" x="222" y="20" width="10" height="26" style="fill:var(--pf-accent)" opacity=".75"/></g></g>
  <text x="230" y="61" class="pf-class"><tspan class="pf-accent">Lv.23 Trickster</tspan><tspan class="pf-muted"> · JavaScript</tspan></text>
  
  <text x="230" y="88" class="pf-label">HP</text><rect x="260" y="79" width="12" height="10" rx="1.5" style="fill:var(--pf-hp)"/><rect x="274" y="79" width="12" height="10" rx="1.5" style="fill:var(--pf-hp)"/><rect x="288" y="79" width="12" height="10" rx="1.5" style="fill:var(--pf-hp)"/><rect x="302" y="79" width="12" height="10" rx="1.5" style="fill:var(--pf-hp)"/><rect x="316" y="79" width="12" height="10" rx="1.5" style="fill:var(--pf-hp)"/><rect x="330" y="79" width="12" height="10" rx="1.5" style="fill:var(--pf-hp)"/><rect x="344" y="79" width="12" height="10" rx="1.5" style="fill:var(--pf-hp)"/><rect x="358" y="79" width="12" height="10" rx="1.5" style="fill:var(--pf-hp)"/><rect x="372" y="79" width="12" height="10" rx="1.5" style="fill:var(--pf-hp)"/><rect x="386" y="79" width="12" height="10" rx="1.5" style="fill:var(--pf-hp)"/><rect class="pf-glint" style="--w:136px" x="260" y="79" width="3" height="10" fill="#ffffff" opacity="0"/>
  <text x="464" y="88" class="pf-value" text-anchor="end">14/14d</text>
  
  <text x="230" y="108" class="pf-label">EXP</text><rect x="260" y="99" width="12" height="10" rx="1.5" style="fill:var(--pf-exp)"/><rect x="274" y="99" width="12" height="10" rx="1.5" style="fill:var(--pf-exp)"/><rect x="288" y="99" width="12" height="10" rx="1.5" style="fill:var(--pf-exp)"/><rect x="302" y="99" width="12" height="10" rx="1.5" style="fill:var(--pf-exp)"/><rect x="316" y="99" width="12" height="10" rx="1.5" style="fill:var(--pf-bar-empty)"/><rect x="330" y="99" width="12" height="10" rx="1.5" style="fill:var(--pf-bar-empty)"/><rect x="344" y="99" width="12" height="10" rx="1.5" style="fill:var(--pf-bar-empty)"/><rect x="358" y="99" width="12" height="10" rx="1.5" style="fill:var(--pf-bar-empty)"/><rect x="372" y="99" width="12" height="10" rx="1.5" style="fill:var(--pf-bar-empty)"/><rect x="386" y="99" width="12" height="10" rx="1.5" style="fill:var(--pf-bar-empty)"/><rect class="pf-charge" x="316" y="99" width="12" height="10" rx="1.5" style="fill:var(--pf-exp)"/><rect class="pf-glint" style="--w:52px" x="260" y="99" width="3" height="10" fill="#ffffff" opacity="0"/>
  <text x="464" y="108" class="pf-value" text-anchor="end">2.5k/2.6k</text>
  <path fill="#ced4da" d="M239 117.5h1.5v1.5h-1.5zM236 119h3v1.5h-3zM234.5 120.5h3v1.5h-3zM233 122h3v1.5h-3zM233 123.5h1.5v1.5h-1.5z"/><path fill="#fab005" d="M230 122h1.5v1.5h-1.5zM231.5 123.5h1.5v1.5h-1.5zM231.5 125h1.5v1.5h-1.5z"/><path fill="#8a5a33" d="M230 125h1.5v1.5h-1.5zM230 126.5h1.5v1.5h-1.5z"/><text x="243" y="128" class="pf-label">STR</text><text x="230" y="147" class="pf-stat">65</text><path fill="#4dabf7" d="M290 120.5h10.5v1.5h-10.5zM290 122h1.5v1.5h-1.5zM294.5 122h1.5v1.5h-1.5zM299 122h1.5v1.5h-1.5zM290 123.5h1.5v1.5h-1.5zM294.5 123.5h1.5v1.5h-1.5zM299 123.5h1.5v1.5h-1.5zM290 125h1.5v1.5h-1.5zM294.5 125h1.5v1.5h-1.5zM299 125h1.5v1.5h-1.5zM290 126.5h10.5v1.5h-10.5z"/><path fill="#f1f3f5" d="M291.5 122h3v1.5h-3zM296 122h3v1.5h-3zM291.5 123.5h3v1.5h-3zM296 123.5h3v1.5h-3zM291.5 125h3v1.5h-3zM296 125h3v1.5h-3z"/><text x="303" y="128" class="pf-label">INT</text><text x="290" y="147" class="pf-stat">12</text><path fill="#ff6b8b" d="M351.5 119h3v1.5h-3zM356 119h3v1.5h-3zM350 120.5h10.5v1.5h-10.5zM350 122h10.5v1.5h-10.5zM351.5 123.5h7.5v1.5h-7.5zM353 125h4.5v1.5h-4.5zM354.5 126.5h1.5v1.5h-1.5z"/><text x="363" y="128" class="pf-label">CHA</text><text x="350" y="147" class="pf-stat">1</text><path fill="#c0803a" d="M413 119h4.5v1.5h-4.5zM413 120.5h4.5v1.5h-4.5zM413 122h6v1.5h-6zM413 123.5h7.5v1.5h-7.5zM410 125h10.5v1.5h-10.5z"/><path fill="#5c3d2e" d="M410 126.5h10.5v1.5h-10.5z"/><text x="423" y="128" class="pf-label">DEX</text><text x="410" y="147" class="pf-stat">12</text>
  <g class="pf-icon-beat"><path fill="#ff5c7a" d="M230 164h4v2h-4zM236 164h4v2h-4zM230 166h10v2h-10zM232 168h6v2h-6zM234 170h2v2h-2z"/></g>
  <text x="246" y="174" class="pf-mood">Played with aichrisz ♪</text>
</g>
</svg>